# xmcd
#
# Track frame offsets:
#	150
#	24233
#	48027
#	65999
#	90184
#	111012
#	138655
#	160033
#	180881
#	199140
#	217431
#
# Disc length: 3229 seconds
#
# Revision: 1
# Processed by: cddbd v1.5.2PL0 Copyright (c) Steve Scherf et al.
# Submitted via: audiograbber 1.83.01
#
DISCID=920c9b0b
DTITLE=Webb - Brain
DYEAR=2011
DGENRE=Vocal
TTITLE0=Changed
TTITLE1=45
TTITLE2=The Awful Grace of God
TTITLE3=Bird on a Wire
TTITLE4=California Part 1
TTITLE5=Strange Way to Grieve
TTITLE6=The Dirty South
TTITLE7=That's Where I'll Be
TTITLE8=Lonelysome
TTITLE9=The Way Home
TTITLE10=While It Rained
EXTD=All songs by Brain Webb 2011 except "Bird on a Wire" by L. Cohen 1968
EXTT0=
EXTT1=
EXTT2=
EXTT3=
EXTT4=
EXTT5=
EXTT6=
EXTT7=
EXTT8=
EXTT9=
EXTT10=
PLAYORDER=
